<?xml version="1.0" encoding="UTF-8" standalone="no"?>
<!-- Created by MetaPost 2.11 on 2025.12.11:1102 -->

<svg
   version="1.1"
   width="145"
   height="155"
   viewBox="0 0 145.00001 155.00001"
   id="svg136"
   sodipodi:docname="bloch-1.svg"
   inkscape:version="1.2.2 (b0a8486541, 2022-12-01)"
   xmlns:inkscape="http://www.inkscape.org/namespaces/inkscape"
   xmlns:sodipodi="http://sodipodi.sourceforge.net/DTD/sodipodi-0.dtd"
   xmlns:xlink="http://www.w3.org/1999/xlink"
   xmlns="http://www.w3.org/2000/svg"
   xmlns:svg="http://www.w3.org/2000/svg">
  <sodipodi:namedview
     id="namedview138"
     pagecolor="#ffffff"
     bordercolor="#000000"
     borderopacity="0.25"
     inkscape:showpageshadow="2"
     inkscape:pageopacity="0.0"
     inkscape:pagecheckerboard="0"
     inkscape:deskcolor="#d1d1d1"
     showgrid="false"
     inkscape:zoom="2.7506843"
     inkscape:cx="186.31727"
     inkscape:cy="186.1355"
     inkscape:window-width="2560"
     inkscape:window-height="1368"
     inkscape:window-x="0"
     inkscape:window-y="40"
     inkscape:window-maximized="1"
     inkscape:current-layer="svg136" />
  <!-- Original BoundingBox: 235.375534 235.375229 372.416702 372.271011 -->
  <defs
     id="defs32">
    <g
       transform="scale(0.009963)"
       id="GLYPHcmmi10_18">
      <path
         style="fill-rule:evenodd"
         d="m 455,-500 c 0,-66 -18,-205 -120,-205 -139,0 -293,282 -293,511 0,94 29,205 120,205 141,0 293,-287 293,-511 m -307,137 c 17,-64 37,-144 77,-215 27,-49 64,-105 109,-105 49,0 55,64 55,121 0,49 -8,100 -32,199 m -9,32 c -11,46 -32,131 -70,203 -35,68 -73,117 -116,117 -33,0 -54,-29 -54,-122 0,-42 6,-100 32,-198"
         id="path2" />
    </g>
    <g
       transform="scale(0.009963)"
       id="GLYPHcmmi10_32">
      <path
         style="fill-rule:evenodd"
         d="m 482,-668 c 1,-4 3,-10 3,-15 0,-10 -7,-11 -12,-11 -10,0 -11,2 -15,20 L 292,-13 c -76,-9 -114,-46 -114,-112 0,-20 0,-46 54,-186 4,-12 11,-29 11,-49 0,-45 -32,-82 -82,-82 -95,0 -132,145 -132,154 0,10 10,10 12,10 10,0 11,-2 16,-18 27,-95 67,-124 101,-124 8,0 25,0 25,32 0,26 -10,51 -23,86 -48,126 -48,152 -48,169 0,95 78,136 174,142 -8,36 -8,38 -22,91 -3,11 -23,92 -23,95 0,1 0,10 12,10 2,0 7,0 9,-4 3,-2 9,-27 12,-41 L 312,11 c 37,0 125,0 219,-107 41,-46 62,-90 73,-120 9,-25 31,-112 31,-156 0,-56 -27,-70 -44,-70 -25,0 -50,26 -50,48 0,13 6,19 15,27 11,11 36,37 36,85 0,64 -52,146 -87,182 -88,89 -152,89 -188,89"
         id="path5" />
    </g>
    <g
       transform="scale(0.009963)"
       id="GLYPHcmmi10_39">
      <path
         style="fill-rule:evenodd"
         d="m 170,170 c -4,13 -5,15 -5,20 0,22 19,28 29,28 5,0 27,-3 37,-26 3,-8 8,-41 35,-183 9,1 16,2 33,2 166,0 320,-157 320,-315 0,-78 -39,-138 -114,-138 -145,0 -205,194 -265,389 -108,-20 -164,-76 -164,-148 0,-28 23,-138 83,-207 8,-9 8,-11 8,-13 0,-4 -2,-10 -12,-10 -28,0 -105,145 -105,241 0,94 66,167 173,192 m 85,-49 c -8,0 -10,0 -18,-1 -12,0 -13,-1 -13,-4 0,-2 17,-93 20,-108 31,-128 109,-224 198,-224 69,0 96,54 96,102 0,113 -129,235 -283,235"
         id="path8" />
    </g>
    <g
       transform="scale(0.009963)"
       id="GLYPHcmmi10_120">
      <path
         style="fill-rule:evenodd"
         d="m 334,-302 c 6,-26 29,-118 99,-118 5,0 29,0 50,13 -28,5 -48,30 -48,54 0,16 11,35 38,35 22,0 54,-18 54,-58 0,-52 -59,-66 -93,-66 -58,0 -93,53 -105,76 -25,-66 -79,-76 -108,-76 -104,0 -161,129 -161,154 0,10 10,10 12,10 8,0 11,-2 13,-11 34,-106 100,-131 134,-131 19,0 54,9 54,67 0,31 -17,98 -54,238 -16,62 -51,104 -95,104 -6,0 -29,0 -50,-13 25,-5 47,-26 47,-54 0,-27 -22,-35 -37,-35 -30,0 -55,26 -55,58 0,46 50,66 94,66 66,0 102,-70 105,-76 12,37 48,76 108,76 103,0 160,-129 160,-154 0,-10 -9,-10 -12,-10 -9,0 -11,4 -13,11 -33,107 -101,131 -133,131 -39,0 -55,-32 -55,-66 0,-22 6,-44 17,-88"
         id="path11" />
    </g>
    <g
       transform="scale(0.009963)"
       id="GLYPHcmmi10_121">
      <path
         style="fill-rule:evenodd"
         d="m 486,-381 c 4,-14 4,-16 4,-23 0,-18 -14,-27 -29,-27 -10,0 -26,6 -35,21 -2,5 -10,36 -14,54 -7,26 -14,53 -20,80 l -45,180 c -4,15 -47,85 -113,85 -51,0 -62,-44 -62,-81 0,-46 17,-108 51,-196 16,-41 20,-52 20,-72 0,-45 -32,-82 -82,-82 -95,0 -132,145 -132,154 0,10 10,10 12,10 10,0 11,-2 16,-18 27,-94 67,-124 101,-124 8,0 25,0 25,32 0,25 -10,51 -17,70 -40,106 -58,163 -58,210 0,89 63,119 122,119 39,0 73,-17 101,-45 -13,52 -25,101 -65,154 -26,34 -64,63 -110,63 -14,0 -59,-3 -76,-42 16,0 29,0 43,-12 10,-9 20,-22 20,-41 0,-31 -27,-35 -37,-35 -23,0 -56,16 -56,65 0,50 44,87 106,87 103,0 206,-91 234,-204"
         id="path14" />
    </g>
    <g
       transform="scale(0.009963)"
       id="GLYPHcmmi10_122">
      <path
         style="fill-rule:evenodd"
         d="m 133,-83 c 54,-58 83,-83 119,-114 0,-1 62,-54 98,-90 95,-93 117,-141 117,-145 0,-10 -9,-10 -11,-10 -7,0 -10,2 -15,11 -30,48 -51,64 -75,64 -24,0 -36,-15 -51,-32 -19,-23 -36,-43 -69,-43 -75,0 -121,93 -121,114 0,5 3,11 12,11 9,0 11,-5 13,-11 19,-46 77,-47 85,-47 21,0 40,7 63,15 40,15 51,15 77,15 -36,43 -120,115 -139,131 l -90,84 C 78,-63 43,-6 43,1 c 0,10 10,10 12,10 8,0 10,-2 16,-13 23,-35 53,-62 85,-62 23,0 33,9 58,38 17,21 35,37 64,37 99,0 157,-127 157,-154 0,-5 -4,-10 -12,-10 -9,0 -11,6 -14,13 -23,65 -87,84 -120,84 -20,0 -38,-6 -59,-13 -34,-13 -49,-17 -70,-17 -2,0 -18,0 -27,3"
         id="path17" />
    </g>
    <g
       transform="scale(0.009963)"
       id="GLYPHcmsy10_105">
      <path
         style="fill-rule:evenodd"
         d="m 273,-233 c 5,-12 5,-14 5,-17 0,-3 0,-5 -5,-17 L 98,-727 c -6,-17 -12,-23 -23,-23 -11,0 -20,9 -20,20 0,3 0,5 5,16 L 237,-250 60,212 c -5,11 -5,13 -5,18 0,11 9,20 20,20 13,0 17,-10 21,-20"
         id="path20" />
    </g>
    <g
       transform="scale(0.009963)"
       id="GLYPHcmsy10_106">
      <path
         style="fill-rule:evenodd"
         d="m 159,-714 c 0,-18 0,-36 -20,-36 -20,0 -20,18 -20,36 v 928 c 0,18 0,36 20,36 20,0 20,-18 20,-36"
         id="path23" />
    </g>
    <g
       transform="scale(0.009963)"
       id="GLYPHcmr10_48">
      <path
         style="fill-rule:evenodd"
         d="m 460,-320 c 0,-80 -5,-160 -40,-234 -46,-96 -128,-112 -170,-112 -60,0 -133,26 -174,119 -32,69 -37,147 -37,227 0,75 4,165 45,241 43,81 116,101 165,101 54,0 130,-21 174,-116 32,-69 37,-147 37,-226 M 249,0 c -39,0 -98,-25 -116,-121 -11,-60 -11,-152 -11,-211 0,-64 0,-130 8,-184 19,-119 94,-128 119,-128 33,0 99,18 118,117 10,56 10,132 10,195 0,75 0,143 -11,207 C 351,-30 294,0 249,0"
         id="path26" />
    </g>
    <g
       transform="scale(0.009963)"
       id="GLYPHcmr10_49">
      <path
         style="fill-rule:evenodd"
         d="m 294,-640 c 0,-24 0,-26 -23,-26 -62,64 -150,64 -182,64 v 31 c 20,0 79,0 131,-26 v 518 c 0,36 -3,48 -93,48 H 95 V 0 c 35,-3 122,-3 162,-3 40,0 127,0 162,3 v -31 h -32 c -90,0 -93,-11 -93,-48"
         id="path29" />
    </g>
  </defs>
  <path
     d="m 126.61168,69.713507 c -0.62671,-3.555389 -1.56227,-7.049377 -2.79694,-10.441894 -1.2346,-3.392349 -2.76355,-6.670197 -4.56878,-9.796448 -1.80529,-3.126343 -3.87999,-6.089157 -6.20057,-8.854675 -2.32025,-2.765152 -4.87744,-5.322479 -7.64251,-7.642822 -2.76544,-2.320649 -5.728269,-4.395356 -8.854679,-6.200562 -3.12625,-1.805115 -6.40414,-3.333877 -9.79644,-4.568481 -3.39235,-1.234635 -6.8861,-2.170395 -10.44129,-2.797242 -3.55513,-0.626831 -7.15816,-0.942398 -10.76813,-0.942382 -3.60995,1.5e-5 -7.21299,0.315597 -10.76812,0.942382 -3.55518,0.626786 -7.04892,1.562424 -10.44129,2.796936 -3.39242,1.234543 -6.67044,2.76326 -9.79675,4.568482 -3.1263,1.805221 -6.08893,3.880051 -8.85437,6.200561 -2.76508,2.320206 -5.3225,4.877228 -7.64282,7.642212 -2.3207,2.765412 -4.39536,5.728287 -6.20057,8.854676 -1.80525,3.126449 -3.3341596,6.40451 -4.5687796,9.797058 -1.23455,3.392349 -2.17008,6.886123 -2.79694,10.441284 -0.62684,3.55513 -0.94266,7.158157 -0.94269,10.768127 -3e-5,3.609757 0.31568,7.212586 0.94239,10.767517 0.62678,3.555375 1.5623,7.049378 2.79693,10.441894 1.23462,3.39244 2.7635996,6.67038 4.5687896,9.79676 1.80517,3.12634 3.87967,6.08925 6.20026,8.85467 2.3202,2.76499 4.87754,5.32198 7.64251,7.64222 2.76561,2.32076 5.72841,4.39585 8.85498,6.20117 3.12621,1.80511 6.40418,3.3336 9.79645,4.56817 3.39247,1.23465 6.88629,2.17063 10.44159,2.79755 3.55502,0.62686 7.15796,0.94234 10.76782,0.94238 3.60996,5e-5 7.213,-0.31534 10.76813,-0.94207 3.5553,-0.62679 7.04915,-1.56258 10.44159,-2.79725 3.3923,-1.2346 6.6702,-2.76333 9.79645,-4.56848 3.12631,-1.80519 6.089029,-3.87991 8.854369,-6.20056 2.76503,-2.32039 5.32216,-4.87776 7.64251,-7.64282 2.32074,-2.76552 4.39579,-5.72824 6.20118,-8.85468 1.80523,-3.12619 3.33397,-6.4041 4.56848,-9.79645 1.23456,-3.392439 2.17015,-6.886321 2.79693,-10.441588 0.62673,-3.554932 0.94231,-7.157761 0.94239,-10.767517 7e-5,-3.609955 -0.31542,-7.212982 -0.94208,-10.768128 z"
     style="fill:#fafafa;stroke:none"
     id="path34" />
  <path
     d="m 126.61168,69.713507 c -0.62671,-3.555389 -1.56227,-7.049377 -2.79694,-10.441894 -1.2346,-3.392349 -2.76355,-6.670197 -4.56878,-9.796448 -1.80529,-3.126343 -3.87999,-6.089157 -6.20057,-8.854675 -2.32025,-2.765152 -4.87744,-5.322479 -7.64251,-7.642822 -2.76544,-2.320649 -5.728269,-4.395356 -8.854679,-6.200562 -3.12625,-1.805115 -6.40414,-3.333877 -9.79644,-4.568481 -3.39235,-1.234635 -6.8861,-2.170395 -10.44129,-2.797242 -3.55513,-0.626831 -7.15816,-0.942398 -10.76813,-0.942382 -3.60995,1.5e-5 -7.21299,0.315597 -10.76812,0.942382 -3.55518,0.626786 -7.04892,1.562424 -10.44129,2.796936 -3.39242,1.234543 -6.67044,2.76326 -9.79675,4.568482 -3.1263,1.805221 -6.08893,3.880051 -8.85437,6.200561 -2.76508,2.320206 -5.3225,4.877228 -7.64282,7.642212 -2.3207,2.765412 -4.39536,5.728287 -6.20057,8.854676 -1.80525,3.126449 -3.3341596,6.40451 -4.5687796,9.797058 -1.23455,3.392349 -2.17008,6.886123 -2.79694,10.441284 -0.62684,3.55513 -0.94266,7.158157 -0.94269,10.768127 -3e-5,3.609757 0.31568,7.212586 0.94239,10.767517 0.62678,3.555375 1.5623,7.049378 2.79693,10.441894 1.23462,3.39244 2.7635996,6.67038 4.5687896,9.79676 1.80517,3.12634 3.87967,6.08925 6.20026,8.85467 2.3202,2.76499 4.87754,5.32198 7.64251,7.64222 2.76561,2.32076 5.72841,4.39585 8.85498,6.20117 3.12621,1.80511 6.40418,3.3336 9.79645,4.56817 3.39247,1.23465 6.88629,2.17063 10.44159,2.79755 3.55502,0.62686 7.15796,0.94234 10.76782,0.94238 3.60996,5e-5 7.213,-0.31534 10.76813,-0.94207 3.5553,-0.62679 7.04915,-1.56258 10.44159,-2.79725 3.3923,-1.2346 6.6702,-2.76333 9.79645,-4.56848 3.12631,-1.80519 6.089029,-3.87991 8.854369,-6.20056 2.76503,-2.32039 5.32216,-4.87776 7.64251,-7.64282 2.32074,-2.76552 4.39579,-5.72824 6.20118,-8.85468 1.80523,-3.12619 3.33397,-6.4041 4.56848,-9.79645 1.23456,-3.392439 2.17015,-6.886321 2.79693,-10.441588 0.62673,-3.554932 0.94231,-7.157761 0.94239,-10.767517 7e-5,-3.609955 -0.31542,-7.212982 -0.94208,-10.768128 z"
     style="fill:none;stroke:#000000;stroke-width:0.5;stroke-linecap:round;stroke-linejoin:round;stroke-miterlimit:10"
     id="path36" />
  <path
     d="m 3.9909814,87.997199 c 0.0759,0.627045 0.20139,1.24881 0.3743,1.859436 0.5027,1.775253 1.39117,3.409958 2.49023,4.891052 1.34954,1.818634 2.9984,3.386673 4.7842396,4.778137 2.21102,1.722736 4.62047,3.168156 7.12311,4.429326 3.01129,1.5175 6.14913,2.76486 9.35059,3.82294 3.69264,1.22039 7.46322,2.18707 11.27472,2.95929 4.19627,0.85017 8.43651,1.46365 12.69806,1.87591 4.47203,0.43263 8.96261,0.64325 13.4555,0.64331 4.49268,6e-5 8.98307,-0.21043 13.4549,-0.643 4.26176,-0.41225 8.50218,-1.02579 12.69867,-1.87592 3.81148,-0.77212 7.5821,-1.7386 11.274719,-2.95898 3.20153,-1.05811 6.3394,-2.30564 9.35089,-3.82294 2.50285,-1.26104 4.91269,-2.7061 7.12372,-4.42902 1.78566,-1.391449 3.43405,-2.959732 4.78363,-4.778137 1.09922,-1.481095 1.98823,-3.115662 2.49084,-4.891053 0.17284,-0.610534 0.29814,-1.232223 0.37393,-1.859176"
     style="fill:none;stroke:#000000;stroke-width:0.5;stroke-linecap:round;stroke-linejoin:round;stroke-miterlimit:10"
     id="path38" />
  <path
     d="m 125.54204,80.48133 c 3.72589,6.846008 0.56,15.133972 -9.36981,21.31928 -10.96009,6.82739 -30.772709,11.45599 -50.630499,11.45599 -19.85778,0 -39.67041,-4.62829 -50.62988,-11.45661 C 4.9823514,95.614386 1.8161514,87.326422 5.5414314,80.480719 8.8562514,74.391242 18.025861,68.606635 29.030811,65.107184 c 10.24902,-3.259582 24.05731,-5.180969 36.51092,-5.180969 12.45362,0 26.26099,1.921997 36.510319,5.181274 9.29091,2.954499 18.84147,6.832596 23.48999,15.373841 z"
     style="fill:none;stroke:#000000;stroke-width:0.5;stroke-linecap:round;stroke-linejoin:round;stroke-miterlimit:10;stroke-dasharray:3, 3"
     id="path40" />
  <path
     d="M 65.541731,80.481025 V 19.580451"
     style="fill:none;stroke:#000000;stroke-width:0.5;stroke-linecap:round;stroke-linejoin:round;stroke-miterlimit:10"
     id="path42" />
  <path
     d="m 67.072331,23.27555 -1.5306,-3.695099 -1.53059,3.695099 z"
     style="fill:#000000;stroke:#000000;stroke-width:0.5;stroke-linejoin:round;stroke-miterlimit:0"
     id="path44" />
  <path
     d="M 65.541731,80.481025 V 129.66987"
     style="fill:none;stroke:#000000;stroke-width:0.5;stroke-linecap:round;stroke-linejoin:round;stroke-miterlimit:10"
     id="path46" />
  <path
     d="m 64.011061,125.97461 1.53067,3.69526 1.53067,-3.69526 z"
     style="fill:#000000;stroke:#000000;stroke-width:0.5;stroke-linejoin:round;stroke-miterlimit:0"
     id="path48" />
  <path
     d="M 65.541731,80.481025 83.110701,35.867987"
     style="fill:none;stroke:#000000;stroke-width:0.5;stroke-linecap:round;stroke-linejoin:round;stroke-miterlimit:10"
     id="path50" />
  <path
     d="m 83.180881,39.867179 -0.0702,-3.999192 -2.77827,2.877427 z"
     style="fill:#000000;stroke:#000000;stroke-width:0.5;stroke-linejoin:round;stroke-miterlimit:0"
     id="path52" />
  <path
     d="M 65.541731,80.481025 101.06877,108.38234"
     style="fill:none;stroke:#000000;stroke-width:0.5;stroke-linecap:round;stroke-linejoin:round;stroke-miterlimit:10;stroke-dasharray:3, 3"
     id="path54" />
  <path
     d="m 83.110701,35.867987 -1.80054,56.996766"
     style="fill:none;stroke:#000000;stroke-width:0.5;stroke-linecap:round;stroke-linejoin:round;stroke-miterlimit:10;stroke-dasharray:3, 3"
     id="path56" />
  <path
     d="M 65.541731,80.481025 21.110891,127.25349"
     style="fill:none;stroke:#000000;stroke-width:0.5;stroke-linecap:round;stroke-linejoin:round;stroke-miterlimit:10"
     id="path58" />
  <path
     d="m 22.546401,123.51945 -1.43551,3.73404 3.65545,-1.62525 z"
     style="fill:#000000;stroke:#000000;stroke-width:0.5;stroke-linejoin:round;stroke-miterlimit:0"
     id="path60" />
  <path
     d="m 65.541731,80.481025 72.158509,12.15393"
     style="fill:none;stroke:#000000;stroke-width:0.5;stroke-linecap:round;stroke-linejoin:round;stroke-miterlimit:10"
     id="path62" />
  <path
     d="m 133.80229,93.530524 3.89795,-0.895569 -3.38949,-2.123047 z"
     style="fill:#000000;stroke:#000000;stroke-width:0.5;stroke-linejoin:round;stroke-miterlimit:0"
     id="path64" />
  <path
     d="M 65.541731,80.481025 V 7.9920115"
     style="fill:none;stroke:#000000;stroke-width:0.5;stroke-linecap:round;stroke-linejoin:round;stroke-miterlimit:10"
     id="path66" />
  <path
     d="m 67.072341,11.687156 -1.53061,-3.6951445 -1.53061,3.6951445 z"
     style="fill:#000000;stroke:#000000;stroke-width:0.5;stroke-linejoin:round;stroke-miterlimit:0"
     id="path68" />
  <g
     transform="translate(18.263931,134.54299)"
     style="fill:#000000"
     id="g72">
    <use
       xlink:href="#GLYPHcmmi10_120"
       id="use70" />
  </g>
  <g
     transform="translate(135.07928,99.92446)"
     style="fill:#000000"
     id="g76">
    <use
       xlink:href="#GLYPHcmmi10_121"
       id="use74" />
  </g>
  <g
     transform="translate(57.470431,10.136771)"
     style="fill:#000000"
     id="g80">
    <use
       xlink:href="#GLYPHcmmi10_122"
       id="use78" />
  </g>
  <g
     transform="translate(67.641721,14.989753)"
     style="fill:#000000"
     id="g84">
    <use
       xlink:href="#GLYPHcmsy10_106"
       id="use82" />
  </g>
  <g
     transform="translate(70.409121,14.989753)"
     style="fill:#000000"
     id="g88">
    <use
       xlink:href="#GLYPHcmr10_48"
       id="use86" />
  </g>
  <g
     transform="translate(75.390431,14.989753)"
     style="fill:#000000"
     id="g92">
    <use
       xlink:href="#GLYPHcmsy10_105"
       id="use90" />
  </g>
  <path
     d="m 65.541731,19.580451 v 0"
     style="fill:none;stroke:#000000;stroke-width:3;stroke-linecap:round;stroke-linejoin:round;stroke-miterlimit:10"
     id="path94" />
  <g
     transform="translate(59.730181,140.14187)"
     style="fill:#000000"
     id="g98">
    <use
       xlink:href="#GLYPHcmsy10_106"
       id="use96" />
  </g>
  <g
     transform="translate(62.497571,140.14187)"
     style="fill:#000000"
     id="g102">
    <use
       xlink:href="#GLYPHcmr10_49"
       id="use100" />
  </g>
  <g
     transform="translate(67.478881,140.14187)"
     style="fill:#000000"
     id="g106">
    <use
       xlink:href="#GLYPHcmsy10_105"
       id="use104" />
  </g>
  <path
     d="m 65.541731,129.66987 v 0"
     style="fill:none;stroke:#000000;stroke-width:3;stroke-linecap:round;stroke-linejoin:round;stroke-miterlimit:10"
     id="path108" />
  <g
     transform="translate(86.110701,38.358634)"
     style="fill:#000000"
     id="g112">
    <use
       xlink:href="#GLYPHcmsy10_106"
       id="use110" />
  </g>
  <g
     transform="translate(88.878101,38.358634)"
     style="fill:#000000"
     id="g116">
    <use
       xlink:href="#GLYPHcmmi10_32"
       id="use114" />
  </g>
  <g
     transform="translate(95.725101,38.358634)"
     style="fill:#000000"
     id="g120">
    <use
       xlink:href="#GLYPHcmsy10_105"
       id="use118" />
  </g>
  <path
     d="m 83.110701,35.867987 v 0"
     style="fill:none;stroke:#000000;stroke-width:3;stroke-linecap:round;stroke-linejoin:round;stroke-miterlimit:10"
     id="path122" />
  <path
     d="m 65.541731,57.744818 c 2.49604,1.556397 3.89862,3.172303 6.14502,7.132264"
     style="fill:none;stroke:#000000;stroke-width:0.5;stroke-linecap:round;stroke-linejoin:round;stroke-miterlimit:10"
     id="path124" />
  <g
     transform="translate(70.807851,58.309623)"
     style="fill:#000000"
     id="g128">
    <use
       xlink:href="#GLYPHcmmi10_18"
       id="use126" />
  </g>
  <path
     d="m 55.799301,90.736762 c 8.21503,1.535339 14.37378,1.374817 22.07977,-0.566712"
     style="fill:none;stroke:#000000;stroke-width:0.5;stroke-linecap:round;stroke-linejoin:round;stroke-miterlimit:10"
     id="path130" />
  <g
     transform="translate(58.412891,98.14672)"
     style="fill:#000000"
     id="g134">
    <use
       xlink:href="#GLYPHcmmi10_39"
       id="use132" />
  </g>
</svg>
